<svg xmlns="http://www.w3.org/2000/svg" xmlns:xlink="http://www.w3.org/1999/xlink" viewBox="0 0 273.08 242.23"><defs><style>.cls-1{fill:none;}.cls-2{fill:#992b38;}.cls-3{isolation:isolate;}.cls-4{clip-path:url(#clip-path);}.cls-5{fill:#932a36;}.cls-6{fill:#8e2834;}.cls-7{clip-path:url(#clip-path-2);}.cls-8{fill:#7b232d;}.cls-9{clip-path:url(#clip-path-3);}.cls-10{fill:#77222c;}.cls-11{clip-path:url(#clip-path-4);}.cls-12{clip-path:url(#clip-path-5);}.cls-13{fill:#892732;}.cls-14{fill:#852631;}.cls-15{fill:#80242f;}.cls-16{clip-path:url(#clip-path-6);}.cls-17{fill:#999;}.cls-18{fill:#9e9e9e;}.cls-19{fill:#a3a3a3;}.cls-20{fill:#949494;}.cls-21{clip-path:url(#clip-path-7);}.cls-22{clip-path:url(#clip-path-8);}.cls-23{clip-path:url(#clip-path-9);}.cls-24{fill:#982b38;}.cls-25{clip-path:url(#clip-path-10);}.cls-26{clip-path:url(#clip-path-11);}.cls-27{clip-path:url(#clip-path-12);}.cls-28{fill:#858585;}.cls-29{clip-path:url(#clip-path-13);}.cls-30{clip-path:url(#clip-path-14);}.cls-31{clip-path:url(#clip-path-15);}.cls-32{clip-path:url(#clip-path-16);}.cls-33{clip-path:url(#clip-path-17);}.cls-34{clip-path:url(#clip-path-18);}.cls-35{fill:#8a8a8a;}.cls-36{fill:#8f8f8f;}.cls-37{clip-path:url(#clip-path-19);}.cls-38{fill:#ed4357;}.cls-39{fill:#fff;}.cls-40{clip-path:url(#clip-path-20);}.cls-41{clip-path:url(#clip-path-21);}.cls-42{clip-path:url(#clip-path-22);}.cls-43{fill:#6d6e71;opacity:0.04;}.cls-44{clip-path:url(#clip-path-23);}.cls-45{fill:#9a2c39;}.cls-46{clip-path:url(#clip-path-24);}.cls-47{clip-path:url(#clip-path-25);}.cls-48{fill:#9c2c39;}.cls-49{clip-path:url(#clip-path-26);}.cls-50{clip-path:url(#clip-path-27);}.cls-51{fill:#a6a6a6;}.cls-52{clip-path:url(#clip-path-28);}.cls-53{fill:gray;}.cls-54{clip-path:url(#clip-path-29);}.cls-55{clip-path:url(#clip-path-30);}.cls-56{clip-path:url(#clip-path-31);}</style><clipPath id="clip-path" transform="translate(0 0)"><path class="cls-1" d="M72.22.24,81,2.39a8.54,8.54,0,0,0-3.2-.14L69,.09A8.39,8.39,0,0,1,72.22.24Z"/></clipPath><clipPath id="clip-path-2" transform="translate(0 0)"><path class="cls-1" d="M52.83,38.13a7.48,7.48,0,0,0-1.19-1.48l8.81,2.15a7.45,7.45,0,0,1,1.18,1.49c1.86,3,1.79,15.3,1.78,16L54.6,54.08C54.61,53.43,54.68,41.09,52.83,38.13Z"/></clipPath><clipPath id="clip-path-3" transform="translate(0 0)"><path class="cls-1" d="M48.59,89.8l-8.81-2.16a2.92,2.92,0,0,1-1.66-1.12l8.81,2.15A2.94,2.94,0,0,0,48.59,89.8Z"/></clipPath><clipPath id="clip-path-4" transform="translate(0 0)"><path class="cls-1" d="M51.64,36.65a7.15,7.15,0,0,0-3.4-1.84L57.05,37a7.22,7.22,0,0,1,3.4,1.83l-4.4-1.07-.58-.15-1.15-.28L53.21,37l-.54-.13A5,5,0,0,1,51.64,36.65Z"/></clipPath><clipPath id="clip-path-5" transform="translate(0 0)"><path class="cls-1" d="M47,34.59a13.29,13.29,0,0,0,1.9-7.06l8.81,2.16a13.29,13.29,0,0,1-1.9,7.06Z"/></clipPath><clipPath id="clip-path-6" transform="translate(0 0)"><path class="cls-1" d="M47,34.59l8.81,2.16A9.88,9.88,0,0,1,49,41.68l-8.81-2.16L49,41.68a7.3,7.3,0,0,1-2.77-.12L37.42,39.4a7.11,7.11,0,0,0,2.77.12A9.86,9.86,0,0,0,47,34.59Z"/></clipPath><clipPath id="clip-path-7" transform="translate(0 0)"><path class="cls-1" d="M46.59,40.09l-8.81-2.16a6.29,6.29,0,0,0,2.38.11L49,40.19A6.1,6.1,0,0,1,46.59,40.09Z"/></clipPath><clipPath id="clip-path-8" transform="translate(0 0)"><path class="cls-1" d="M48.91,27.53c-.08-4.74-2.73-8.39-6.32-9.27l8.81,2.16c3.58.88,6.24,4.53,6.32,9.27Z"/></clipPath><clipPath id="clip-path-9" transform="translate(0 0)"><path class="cls-1" d="M42.23,19.73,51,21.89c3.09.76,5.38,3.91,5.45,8C56.57,35,53.2,39.58,49,40.19L40.16,38c4.23-.62,7.6-5.25,7.51-10.33C47.6,23.64,45.32,20.49,42.23,19.73Z"/></clipPath><clipPath id="clip-path-10" transform="translate(0 0)"><path class="cls-1" d="M39.84,19.63a6.29,6.29,0,0,1,2.38.1L51,21.89a6.1,6.1,0,0,0-2.38-.1Z"/></clipPath><clipPath id="clip-path-11" transform="translate(0 0)"><path class="cls-1" d="M42.59,18.26l8.8,2.16a7.3,7.3,0,0,0-2.77-.12l-8.81-2.16A7.36,7.36,0,0,1,42.59,18.26Z"/></clipPath><clipPath id="clip-path-12" transform="translate(0 0)"><path class="cls-1" d="M35,36.43l8.81,2.16A6.24,6.24,0,0,0,46,39.9l-8.81-2.15A6.62,6.62,0,0,1,35,36.43Z"/></clipPath><clipPath id="clip-path-13" transform="translate(0 0)"><path class="cls-1" d="M35,36.43l-.31-.3,8.8,2.16.32.3-7.56-1.85-.63-.16-.16,0-.16,0-.16,0A.7.7,0,0,1,35,36.43Z"/></clipPath><clipPath id="clip-path-14" transform="translate(0 0)"><path class="cls-1" d="M33.38,34.29l8.81,2.16a8,8,0,0,0,1.31,1.84l-8.8-2.16A8,8,0,0,1,33.38,34.29Z"/></clipPath><clipPath id="clip-path-15" transform="translate(0 0)"><path class="cls-1" d="M33.38,34.29a8.13,8.13,0,0,1-.38-.85l8.81,2.16a9.19,9.19,0,0,0,.38.85Z"/></clipPath><clipPath id="clip-path-16" transform="translate(0 0)"><path class="cls-1" d="M32.48,31.54l8.81,2.16a9.47,9.47,0,0,0,.52,1.9L33,33.44A9.47,9.47,0,0,1,32.48,31.54Z"/></clipPath><clipPath id="clip-path-17" transform="translate(0 0)"><path class="cls-1" d="M32.48,31.54A10.21,10.21,0,0,1,32.33,30l8.81,2.16a10.21,10.21,0,0,0,.15,1.59Z"/></clipPath><clipPath id="clip-path-18" transform="translate(0 0)"><path class="cls-1" d="M32.33,30c-.09-5.07,3.28-9.71,7.51-10.32l8.81,2.16c-4.23.61-7.6,5.24-7.51,10.32Z"/></clipPath><clipPath id="clip-path-19" transform="translate(0 0)"><path class="cls-1" d="M46.23,41.56,37.42,39.4a7.57,7.57,0,0,1-4.19-2.8,10.78,10.78,0,0,1-2.14-6.47c-.1-5.9,3.81-11.28,8.72-12l8.81,2.16c-4.91.71-8.82,6.09-8.72,12A10.85,10.85,0,0,0,42,38.76,7.63,7.63,0,0,0,46.23,41.56Z"/></clipPath><clipPath id="clip-path-20" transform="translate(0 0)"><path class="cls-1" d="M35.16,60.35l-8.8-2.16c0-.64-.53-12.9,1.21-16.38a10.45,10.45,0,0,1,5.66-5.21L42,38.76A10.49,10.49,0,0,0,36.38,44C34.64,47.45,35.14,59.71,35.16,60.35Z"/></clipPath><clipPath id="clip-path-21" transform="translate(0 0)"><path class="cls-2" d="M16.94,79.1,8.13,76.94C4,75.91.86,71.66.77,66.16l8.8,2.16C9.67,73.82,12.77,78.07,16.94,79.1Z"/></clipPath><clipPath id="clip-path-22" transform="translate(0 0)"><path class="cls-2" d="M8.81,24.77,0,22.61C-.12,15.77,4.44,9.5,10.14,8.67L19,10.83C13.25,11.65,8.69,17.93,8.81,24.77Z"/></clipPath><clipPath id="clip-path-23" transform="translate(0 0)"><path class="cls-1" d="M235.54,2.32,255.06,7.1A18.54,18.54,0,0,0,248,6.78L228.43,2A18.54,18.54,0,0,1,235.54,2.32Z"/></clipPath><clipPath id="clip-path-24" transform="translate(0 0)"><path class="cls-1" d="M183.18,200.76,163.66,196a6.36,6.36,0,0,1-3.66-2.48l19.52,4.78A6.38,6.38,0,0,0,183.18,200.76Z"/></clipPath><clipPath id="clip-path-25" transform="translate(0 0)"><path class="cls-1" d="M196.07,49.37a17.86,17.86,0,0,0-8-4.4l19.51,4.78a17.87,17.87,0,0,1,8,4.41c4.64,4.35,7.06,10.83,7.18,17.65a31.3,31.3,0,0,1-5.51,18.24l-19.52-4.79A31.28,31.28,0,0,0,203.25,67C203.13,60.21,200.71,53.73,196.07,49.37Z"/></clipPath><clipPath id="clip-path-26" transform="translate(0 0)"><path class="cls-1" d="M188.06,45l19.52,4.79a17.82,17.82,0,0,0-6.83-.31l-19.52-4.78A17.82,17.82,0,0,1,188.06,45Z"/></clipPath><clipPath id="clip-path-27" transform="translate(0 0)"><path class="cls-1" d="M185.12,59.84,165.6,55.05c4.16-6,9.87-9.55,15.63-10.39l19.52,4.78C195,50.28,189.28,53.84,185.12,59.84Z"/></clipPath><clipPath id="clip-path-28" transform="translate(0 0)"><path class="cls-1" d="M162.48,55.51A17.92,17.92,0,0,0,153.41,50l19.52,4.78A18.14,18.14,0,0,1,182,60.29C176.14,58.86,167.66,58.58,162.48,55.51Z"/></clipPath><clipPath id="clip-path-29" transform="translate(0 0)"><path class="cls-1" d="M153.41,50l19.52,4.78a18.07,18.07,0,0,0-6.84-.31c-5.28.77-10.53,3.81-14.73,9.18-8.54,10.87-8.72,27.08-.41,36.19l-19.51-4.79c-8.32-9.11-8.14-25.31.4-36.19,4.21-5.36,9.45-8.4,14.73-9.17A17.66,17.66,0,0,1,153.41,50Z"/></clipPath><clipPath id="clip-path-30" transform="translate(0 0)"><path class="cls-2" d="M113.06,177.06l-19.52-4.79c-9.24-2.26-16.11-11.7-16.32-23.89l19.52,4.78C97,165.35,103.81,174.79,113.06,177.06Z"/></clipPath><clipPath id="clip-path-31" transform="translate(0 0)"><path class="cls-2" d="M95,56.67,75.53,51.88C75.26,36.73,85.37,22.84,98,21l19.52,4.78C104.88,27.62,94.78,41.51,95,56.67Z"/></clipPath></defs><title>Recurso 6</title><g id="Capa_2" data-name="Capa 2"><g id="Capa_1-2" data-name="Capa 1"><g class="cls-3"><g class="cls-4"><g class="cls-3"><path class="cls-5" d="M77.82,2.25,69,.09A8.69,8.69,0,0,1,70.91,0l8.81,2.16a8.69,8.69,0,0,0-1.9.06" transform="translate(0 0)"/><path class="cls-6" d="M79.72,2.19,70.91,0a7.16,7.16,0,0,1,1.31.21L81,2.39a7.83,7.83,0,0,0-1.3-.2" transform="translate(0 0)"/></g></g></g><g class="cls-3"><g class="cls-7"><g class="cls-3"><path class="cls-8" d="M63.41,56.24,54.6,54.08c0-.65.08-13-1.77-15.95a7.21,7.21,0,0,0-4.59-3.32L57.05,37a7.17,7.17,0,0,1,4.58,3.32c1.86,3,1.79,15.3,1.78,16" transform="translate(0 0)"/></g></g></g><polygon class="cls-2" points="54.9 57.48 46.09 55.32 54.6 54.08 63.41 56.24 54.9 57.48"/><g class="cls-3"><g class="cls-9"><path class="cls-10" d="M48.59,89.8l-8.81-2.16a2.92,2.92,0,0,1-1.66-1.12l8.81,2.15a2.94,2.94,0,0,0,1.66,1.13" transform="translate(0 0)"/></g></g><g class="cls-3"><g class="cls-11"><g class="cls-3"><path class="cls-8" d="M63.41,56.24,54.6,54.08c0-.65.08-13-1.77-15.95a7.21,7.21,0,0,0-4.59-3.32L57.05,37a7.17,7.17,0,0,1,4.58,3.32c1.86,3,1.79,15.3,1.78,16" transform="translate(0 0)"/></g></g></g><g class="cls-3"><g class="cls-12"><g class="cls-3"><path class="cls-13" d="M55.82,36.75,47,34.59a14.06,14.06,0,0,0,.76-1.44l8.8,2.16a12.27,12.27,0,0,1-.75,1.44" transform="translate(0 0)"/><path class="cls-14" d="M56.57,35.31l-8.8-2.16a13.9,13.9,0,0,0,.62-1.71L57.2,33.6a12.47,12.47,0,0,1-.63,1.71" transform="translate(0 0)"/><path class="cls-15" d="M57.2,33.6l-8.81-2.16a13.92,13.92,0,0,0,.42-2l8.81,2.16a13.92,13.92,0,0,1-.42,2" transform="translate(0 0)"/><path class="cls-8" d="M57.62,31.56,48.81,29.4a13,13,0,0,0,.1-1.87c-.08-4.74-2.74-8.39-6.32-9.27l8.8,2.16c3.59.88,6.25,4.53,6.33,9.27a14.55,14.55,0,0,1-.1,1.87" transform="translate(0 0)"/></g></g></g><polygon class="cls-2" points="43.69 59.11 34.88 56.95 46.09 55.32 54.9 57.48 43.69 59.11"/><g class="cls-3"><g class="cls-16"><g class="cls-3"><path class="cls-17" d="M46.23,41.56,37.42,39.4a6.76,6.76,0,0,0,1.11.18l8.81,2.16a6.76,6.76,0,0,1-1.11-.18" transform="translate(0 0)"/><path class="cls-18" d="M47.34,41.74l-8.81-2.16a7.87,7.87,0,0,0,3-.36l8.81,2.16a7.87,7.87,0,0,1-3,.36" transform="translate(0 0)"/><path class="cls-19" d="M50.3,41.38l-8.81-2.16a8.71,8.71,0,0,0,1.68-.75L52,40.63a9,9,0,0,1-1.68.75" transform="translate(0 0)"/><path class="cls-18" d="M52,40.63l-8.81-2.16a10.21,10.21,0,0,0,2.55-2.11l8.81,2.16A10.62,10.62,0,0,1,52,40.63" transform="translate(0 0)"/><path class="cls-17" d="M54.53,38.52l-8.81-2.16a12.7,12.7,0,0,0,1.2-1.61l8.81,2.15a12.13,12.13,0,0,1-1.2,1.62" transform="translate(0 0)"/><path class="cls-20" d="M55.73,36.9l-8.81-2.15.09-.16,8.81,2.16-.09.15" transform="translate(0 0)"/></g></g></g><g class="cls-3"><g class="cls-21"><g class="cls-3"><path class="cls-6" d="M46.59,40.09l-8.81-2.16a5.06,5.06,0,0,0,1,.15l8.81,2.16a5.06,5.06,0,0,1-1-.15" transform="translate(0 0)"/><path class="cls-5" d="M47.55,40.24l-8.81-2.16a6.17,6.17,0,0,0,1.42,0L49,40.19a5.67,5.67,0,0,1-1.42.05" transform="translate(0 0)"/></g></g></g><g class="cls-3"><g class="cls-22"><g class="cls-3"><path class="cls-8" d="M57.62,31.56,48.81,29.4a13,13,0,0,0,.1-1.87c-.08-4.74-2.74-8.39-6.32-9.27l8.8,2.16c3.59.88,6.25,4.53,6.33,9.27a14.55,14.55,0,0,1-.1,1.87" transform="translate(0 0)"/></g></g></g><g class="cls-3"><g class="cls-23"><g class="cls-3"><path class="cls-5" d="M49,40.19,40.16,38a7.67,7.67,0,0,0,1.15-.27l8.8,2.16a6.28,6.28,0,0,1-1.14.26" transform="translate(0 0)"/><path class="cls-24" d="M50.11,39.93l-8.8-2.16a7.61,7.61,0,0,0,1.4-.63l8.81,2.16a7.41,7.41,0,0,1-1.41.63" transform="translate(0 0)"/><path class="cls-5" d="M51.52,39.3l-8.81-2.16a9.09,9.09,0,0,0,2.21-1.82l8.81,2.16a9.28,9.28,0,0,1-2.21,1.82" transform="translate(0 0)"/><path class="cls-6" d="M53.73,37.48l-8.81-2.16a10.37,10.37,0,0,0,1-1.4l8.81,2.16a11.29,11.29,0,0,1-1,1.4" transform="translate(0 0)"/><path class="cls-13" d="M54.77,36.08,46,33.92a10.47,10.47,0,0,0,.72-1.37l8.81,2.16a10.47,10.47,0,0,1-.72,1.37" transform="translate(0 0)"/><path class="cls-14" d="M55.49,34.71l-8.81-2.16a9.33,9.33,0,0,0,.54-1.48L56,33.23a11.82,11.82,0,0,1-.54,1.48" transform="translate(0 0)"/><path class="cls-15" d="M56,33.23l-8.81-2.16a10.17,10.17,0,0,0,.36-1.76l8.81,2.16A10.17,10.17,0,0,1,56,33.23" transform="translate(0 0)"/><path class="cls-8" d="M56.39,31.47l-8.81-2.16a10.58,10.58,0,0,0,.09-1.6c-.07-4.07-2.35-7.22-5.44-8L51,21.89c3.09.76,5.38,3.91,5.45,8a10.58,10.58,0,0,1-.09,1.6" transform="translate(0 0)"/></g></g></g><polygon class="cls-10" points="46.93 88.67 38.13 86.52 28.36 74.6 37.17 76.76 46.93 88.67"/><g class="cls-3"><g class="cls-25"><g class="cls-3"><path class="cls-18" d="M48.65,21.79l-8.81-2.16a6.18,6.18,0,0,1,1.42-.05l8.81,2.16a6.18,6.18,0,0,0-1.42.05" transform="translate(0 0)"/><path class="cls-17" d="M50.07,21.74l-8.81-2.16a6.31,6.31,0,0,1,1,.15L51,21.89a5.06,5.06,0,0,0-1-.15" transform="translate(0 0)"/></g></g></g><g class="cls-3"><g class="cls-26"><g class="cls-3"><path class="cls-5" d="M48.62,20.3l-8.81-2.16a7.69,7.69,0,0,1,1.65-.06l8.81,2.16a7.08,7.08,0,0,0-1.65.06" transform="translate(0 0)"/><path class="cls-6" d="M50.27,20.24l-8.81-2.16a7,7,0,0,1,1.13.18l8.8,2.16a6.88,6.88,0,0,0-1.12-.18" transform="translate(0 0)"/></g></g></g><g class="cls-3"><g class="cls-27"><g class="cls-3"><path class="cls-28" d="M46.59,40.09l-8.81-2.16c-3.09-.76-5.38-3.9-5.45-8a10.66,10.66,0,0,1,.09-1.6l8.81,2.16a10.58,10.58,0,0,0-.09,1.6c.07,4.08,2.36,7.22,5.45,8" transform="translate(0 0)"/></g></g></g><g class="cls-3"><g class="cls-29"><g class="cls-3"><path class="cls-28" d="M46.59,40.09l-8.81-2.16c-3.09-.76-5.38-3.9-5.45-8a10.66,10.66,0,0,1,.09-1.6l8.81,2.16a10.58,10.58,0,0,0-.09,1.6c.07,4.08,2.36,7.22,5.45,8" transform="translate(0 0)"/></g></g></g><g class="cls-3"><g class="cls-30"><g class="cls-3"><path class="cls-28" d="M46.59,40.09l-8.81-2.16c-3.09-.76-5.38-3.9-5.45-8a10.66,10.66,0,0,1,.09-1.6l8.81,2.16a10.58,10.58,0,0,0-.09,1.6c.07,4.08,2.36,7.22,5.45,8" transform="translate(0 0)"/></g></g></g><g class="cls-3"><g class="cls-31"><g class="cls-3"><path class="cls-28" d="M46.59,40.09l-8.81-2.16c-3.09-.76-5.38-3.9-5.45-8a10.66,10.66,0,0,1,.09-1.6l8.81,2.16a10.58,10.58,0,0,0-.09,1.6c.07,4.08,2.36,7.22,5.45,8" transform="translate(0 0)"/></g></g></g><polygon class="cls-2" points="35.16 60.35 26.36 58.19 34.88 56.95 43.69 59.11 35.16 60.35"/><g class="cls-3"><g class="cls-32"><g class="cls-3"><path class="cls-28" d="M46.59,40.09l-8.81-2.16c-3.09-.76-5.38-3.9-5.45-8a10.66,10.66,0,0,1,.09-1.6l8.81,2.16a10.58,10.58,0,0,0-.09,1.6c.07,4.08,2.36,7.22,5.45,8" transform="translate(0 0)"/></g></g></g><g class="cls-3"><g class="cls-33"><g class="cls-3"><path class="cls-28" d="M46.59,40.09l-8.81-2.16c-3.09-.76-5.38-3.9-5.45-8a10.66,10.66,0,0,1,.09-1.6l8.81,2.16a10.58,10.58,0,0,0-.09,1.6c.07,4.08,2.36,7.22,5.45,8" transform="translate(0 0)"/></g></g></g><g class="cls-3"><g class="cls-34"><g class="cls-3"><path class="cls-28" d="M46.59,40.09l-8.81-2.16c-3.09-.76-5.38-3.9-5.45-8a10.66,10.66,0,0,1,.09-1.6l8.81,2.16a10.58,10.58,0,0,0-.09,1.6c.07,4.08,2.36,7.22,5.45,8" transform="translate(0 0)"/><path class="cls-35" d="M41.23,30.51l-8.81-2.16a11.44,11.44,0,0,1,.36-1.76l8.81,2.16a10.36,10.36,0,0,0-.36,1.76" transform="translate(0 0)"/><path class="cls-36" d="M41.59,28.75l-8.81-2.16a11.67,11.67,0,0,1,.54-1.47l8.81,2.16a9.21,9.21,0,0,0-.54,1.47" transform="translate(0 0)"/><path class="cls-20" d="M42.13,27.28l-8.81-2.16a10.1,10.1,0,0,1,.73-1.38l8.8,2.16a11.28,11.28,0,0,0-.72,1.38" transform="translate(0 0)"/><path class="cls-17" d="M42.85,25.9l-8.8-2.16a9.68,9.68,0,0,1,1-1.39L43.9,24.5a11.36,11.36,0,0,0-1,1.4" transform="translate(0 0)"/><path class="cls-18" d="M43.9,24.5l-8.81-2.15a8.91,8.91,0,0,1,2.21-1.83l8.8,2.16a9,9,0,0,0-2.2,1.82" transform="translate(0 0)"/><path class="cls-19" d="M46.1,22.68l-8.8-2.16a7.05,7.05,0,0,1,1.4-.63l8.81,2.16a7.41,7.41,0,0,0-1.41.63" transform="translate(0 0)"/><path class="cls-18" d="M47.51,22.05,38.7,19.89a6.28,6.28,0,0,1,1.14-.26l8.81,2.16a6.28,6.28,0,0,0-1.14.26" transform="translate(0 0)"/></g></g></g><g class="cls-3"><g class="cls-37"><g class="cls-3"><path class="cls-8" d="M46.23,41.56,37.42,39.4a7.57,7.57,0,0,1-4.19-2.8,10.78,10.78,0,0,1-2.14-6.47,14.3,14.3,0,0,1,.1-1.86L40,30.43a12.73,12.73,0,0,0-.1,1.86A10.85,10.85,0,0,0,42,38.76a7.63,7.63,0,0,0,4.2,2.8" transform="translate(0 0)"/><path class="cls-15" d="M40,30.43l-8.81-2.16a13.66,13.66,0,0,1,.42-2l8.81,2.16a13.66,13.66,0,0,0-.42,2" transform="translate(0 0)"/><path class="cls-14" d="M40.42,28.39l-8.81-2.16a12.6,12.6,0,0,1,.63-1.72L41,26.67a14,14,0,0,0-.62,1.72" transform="translate(0 0)"/><path class="cls-13" d="M41,26.67l-8.8-2.16a12.66,12.66,0,0,1,.84-1.59l8.81,2.16A14.18,14.18,0,0,0,41,26.67" transform="translate(0 0)"/><path class="cls-6" d="M41.89,25.08l-8.81-2.16a11.58,11.58,0,0,1,1.21-1.62l8.81,2.16a11.58,11.58,0,0,0-1.21,1.62" transform="translate(0 0)"/><path class="cls-5" d="M43.1,23.46,34.29,21.3a10.3,10.3,0,0,1,2.57-2.12l8.81,2.16a10.13,10.13,0,0,0-2.57,2.12" transform="translate(0 0)"/><path class="cls-24" d="M45.67,21.34l-8.81-2.16a8.21,8.21,0,0,1,1.63-.73l8.81,2.16a8.21,8.21,0,0,0-1.63.73" transform="translate(0 0)"/><path class="cls-5" d="M47.3,20.61l-8.81-2.16a7.45,7.45,0,0,1,1.32-.31l8.81,2.16a7.45,7.45,0,0,0-1.32.31" transform="translate(0 0)"/></g></g></g><path class="cls-38" d="M48.62,20.3c4.92-.72,9,3.5,9.1,9.39a13.29,13.29,0,0,1-1.9,7.06A9.88,9.88,0,0,1,49,41.68a7.33,7.33,0,0,1-7-2.92,10.85,10.85,0,0,1-2.13-6.47C39.8,26.39,43.71,21,48.62,20.3ZM49,40.19c4.23-.61,7.6-5.24,7.51-10.32s-3.6-8.7-7.83-8.08S41.05,27,41.14,32.11s3.61,8.7,7.83,8.08" transform="translate(0 0)"/><path class="cls-39" d="M48.65,21.79c4.23-.62,7.74,3,7.83,8.08S53.2,39.58,49,40.19s-7.74-3-7.83-8.08S44.42,22.4,48.65,21.79Z" transform="translate(0 0)"/><g class="cls-3"><g class="cls-40"><g class="cls-3"><path class="cls-28" d="M35.16,60.35l-8.8-2.16a92.46,92.46,0,0,1,.3-12.61l8.81,2.16a93.08,93.08,0,0,0-.31,12.61" transform="translate(0 0)"/><path class="cls-35" d="M35.47,47.74l-8.81-2.16a18.51,18.51,0,0,1,.51-2.71L36,45a18.51,18.51,0,0,0-.51,2.71" transform="translate(0 0)"/><path class="cls-36" d="M36,45l-8.81-2.16a5.88,5.88,0,0,1,.31-.87l8.8,2.16A6.76,6.76,0,0,0,36,45" transform="translate(0 0)"/><path class="cls-20" d="M36.28,44.16,27.48,42l.09-.19c.17-.35.35-.67.54-1L36.92,43c-.19.3-.37.63-.54,1l-.1.2" transform="translate(0 0)"/><path class="cls-17" d="M36.92,43l-8.81-2.16a11.23,11.23,0,0,1,1.05-1.41L38,41.58a10.33,10.33,0,0,0-1,1.41" transform="translate(0 0)"/><path class="cls-18" d="M38,41.58l-8.81-2.16a10.09,10.09,0,0,1,2.56-2.08l8.8,2.16A10.22,10.22,0,0,0,38,41.58" transform="translate(0 0)"/><path class="cls-19" d="M40.52,39.5l-8.8-2.16a11.73,11.73,0,0,1,1.51-.74L42,38.76a12.41,12.41,0,0,0-1.51.74" transform="translate(0 0)"/></g></g></g><path class="cls-39" d="M42,38.76a7.33,7.33,0,0,0,7,2.92,9.88,9.88,0,0,0,6.82-4.93,7.4,7.4,0,0,1,5.81,3.54c1.86,3,1.79,15.3,1.78,16L54.9,57.48,43.68,59.11l-8.52,1.24c0-.64-.52-12.9,1.22-16.39A10.49,10.49,0,0,1,42,38.76Z" transform="translate(0 0)"/><path class="cls-2" d="M16.94,79.1,8.13,76.94C4,75.91.86,71.66.77,66.16l8.8,2.16C9.67,73.82,12.77,78.07,16.94,79.1Z" transform="translate(0 0)"/><g class="cls-41"><g class="cls-3"><path class="cls-2" d="M16.94,79.1,8.13,76.94C4,75.91.86,71.66.77,66.16l8.8,2.16c.1,5.5,3.2,9.75,7.37,10.78" transform="translate(0 0)"/></g></g><polygon class="cls-2" points="18.95 10.82 10.14 8.67 69.01 0.09 77.82 2.25 18.95 10.82"/><polygon class="cls-2" points="9.57 68.32 0.77 66.16 0 22.61 8.81 24.77 9.57 68.32"/><path class="cls-2" d="M8.81,24.77,0,22.61C-.12,15.77,4.44,9.5,10.14,8.67L19,10.83C13.25,11.65,8.69,17.93,8.81,24.77Z" transform="translate(0 0)"/><g class="cls-42"><g class="cls-3"><path class="cls-2" d="M8.81,24.77,0,22.61a15.33,15.33,0,0,1,.12-2.15l8.81,2.16a15.33,15.33,0,0,0-.12,2.15" transform="translate(0 0)"/><path class="cls-2" d="M8.93,22.62.12,20.46A15.55,15.55,0,0,1,.6,18.09l8.81,2.16a15.55,15.55,0,0,0-.48,2.37" transform="translate(0 0)"/><path class="cls-2" d="M9.41,20.25.6,18.09a16.39,16.39,0,0,1,.73-2l8.81,2.16a16.39,16.39,0,0,0-.73,2" transform="translate(0 0)"/><path class="cls-2" d="M10.14,18.25,1.33,16.09a15,15,0,0,1,1-1.86l8.81,2.16a15,15,0,0,0-1,1.86" transform="translate(0 0)"/><path class="cls-2" d="M11.13,16.39,2.32,14.23a14.07,14.07,0,0,1,1.41-1.89l8.81,2.16a13.27,13.27,0,0,0-1.41,1.89" transform="translate(0 0)"/><path class="cls-2" d="M12.54,14.5,3.73,12.34a11.86,11.86,0,0,1,3-2.47L15.52,12a12,12,0,0,0-3,2.47" transform="translate(0 0)"/><path class="cls-2" d="M15.52,12,6.72,9.87A10.19,10.19,0,0,1,8.6,9l8.81,2.16a10.58,10.58,0,0,0-1.89.84" transform="translate(0 0)"/><path class="cls-2" d="M17.41,11.19,8.6,9a8.2,8.2,0,0,1,1.54-.36L19,10.83a8.2,8.2,0,0,0-1.54.36" transform="translate(0 0)"/></g></g><path class="cls-38" d="M77.82,2.25c5.69-.83,10.45,4.09,10.57,10.93l.76,43.55c.12,6.83-4.44,13.1-10.13,13.93L62,73.14,52.72,87.82a4,4,0,0,1-2.72,2,3,3,0,0,1-3.07-1.17L37.17,76.76l-17,2.48c-5.7.83-10.46-4.08-10.58-10.92L8.81,24.77C8.69,17.93,13.25,11.65,19,10.83Zm-14.41,54c0-.65.08-13-1.78-16a7.4,7.4,0,0,0-5.81-3.54,13.29,13.29,0,0,0,1.9-7.06c-.11-5.89-4.18-10.11-9.1-9.39s-8.82,6.09-8.72,12A10.85,10.85,0,0,0,42,38.76,10.49,10.49,0,0,0,36.38,44c-1.74,3.49-1.24,15.75-1.22,16.39l8.52-1.24L54.9,57.48l8.51-1.24" transform="translate(0 0)"/><polygon class="cls-10" points="37.9 86.14 38.35 86.67 47.02 88.78 46.5 88.16 43.03 87.06 37.9 86.14"/><ellipse class="cls-43" cx="181.23" cy="237.4" rx="44.85" ry="4.83"/><g class="cls-3"><g class="cls-44"><g class="cls-3"><path class="cls-5" d="M248,6.78,228.43,2a18.79,18.79,0,0,1,4.22-.15l19.52,4.79a18.77,18.77,0,0,0-4.22.14" transform="translate(0 0)"/><path class="cls-6" d="M252.17,6.64,232.65,1.85a18.34,18.34,0,0,1,2.89.47L255.06,7.1a18.33,18.33,0,0,0-2.89-.46" transform="translate(0 0)"/></g></g></g><polygon class="cls-45" points="213.77 95.09 194.25 90.31 197.74 85.27 217.26 90.05 213.77 95.09"/><g class="cls-3"><g class="cls-46"><path class="cls-10" d="M183.18,200.76,163.66,196a6.36,6.36,0,0,1-3.66-2.48l19.52,4.78a6.38,6.38,0,0,0,3.66,2.49" transform="translate(0 0)"/></g></g><g class="cls-3"><g class="cls-47"><g class="cls-3"><path class="cls-6" d="M217.26,90.05l-19.52-4.79c.28-.39.55-.8.8-1.21l19.52,4.78c-.25.41-.52.82-.8,1.22" transform="translate(0 0)"/><path class="cls-13" d="M218.06,88.83l-19.52-4.78a31.13,31.13,0,0,0,2-3.78l19.52,4.78a30.41,30.41,0,0,1-2,3.78" transform="translate(0 0)"/><path class="cls-14" d="M220.07,85.05l-19.52-4.78a33,33,0,0,0,1.47-4L221.53,81a30.8,30.8,0,0,1-1.46,4" transform="translate(0 0)"/><path class="cls-15" d="M221.53,81,202,76.24a31.37,31.37,0,0,0,1-4.85l19.52,4.79a30.38,30.38,0,0,1-1,4.84" transform="translate(0 0)"/><path class="cls-8" d="M222.53,76.18,203,71.39a30.57,30.57,0,0,0,.24-4.37c-.12-6.81-2.54-13.29-7.18-17.65a18,18,0,0,0-8-4.41l19.52,4.79a17.77,17.77,0,0,1,8,4.41c4.64,4.35,7.06,10.83,7.18,17.65a32.19,32.19,0,0,1-.24,4.37" transform="translate(0 0)"/></g></g></g><polygon class="cls-48" points="184.69 131.27 165.17 126.49 194.25 90.31 213.77 95.09 184.69 131.27"/><g class="cls-3"><g class="cls-49"><g class="cls-3"><path class="cls-18" d="M200.75,49.44l-19.52-4.78a18,18,0,0,1,4.08-.14l19.52,4.79a18,18,0,0,0-4.08.13" transform="translate(0 0)"/><path class="cls-17" d="M204.83,49.31l-19.52-4.79a18.11,18.11,0,0,1,2.75.44l19.52,4.79a16.94,16.94,0,0,0-2.75-.44" transform="translate(0 0)"/></g></g></g><polygon class="cls-10" points="179.52 198.27 160 193.49 138.36 167.1 157.88 171.88 179.52 198.27"/><g class="cls-3"><g class="cls-50"><g class="cls-3"><path class="cls-17" d="M185.12,59.84,165.6,55.05a30.19,30.19,0,0,1,2.11-2.69l19.52,4.79a28.81,28.81,0,0,0-2.11,2.69" transform="translate(0 0)"/><path class="cls-18" d="M187.23,57.15l-19.52-4.79a25.09,25.09,0,0,1,6.15-5.08l19.51,4.78a25.1,25.1,0,0,0-6.14,5.09" transform="translate(0 0)"/><path class="cls-19" d="M193.37,52.06l-19.51-4.78A21.17,21.17,0,0,1,178,45.41l19.52,4.78a22.13,22.13,0,0,0-4.18,1.87" transform="translate(0 0)"/><path class="cls-18" d="M197.55,50.19,178,45.41a18.31,18.31,0,0,1,3.2-.75l19.52,4.78a20.31,20.31,0,0,0-3.2.75" transform="translate(0 0)"/></g></g></g><polygon class="cls-51" points="183.6 62.04 164.08 57.26 165.6 55.05 185.12 59.84 183.6 62.04"/><polygon class="cls-10" points="183.6 62.04 164.08 57.26 162.48 55.51 182 60.29 183.6 62.04"/><g class="cls-3"><g class="cls-52"><g class="cls-3"><path class="cls-8" d="M182,60.29l-19.52-4.78A17.92,17.92,0,0,0,153.41,50l19.52,4.78A18.14,18.14,0,0,1,182,60.29" transform="translate(0 0)"/></g></g></g><polygon class="cls-53" points="184.69 131.27 165.17 126.49 135.1 99.09 154.62 103.87 184.69 131.27"/><polygon class="cls-53" points="154.62 103.87 135.1 99.09 131.44 95.07 150.96 99.86 154.62 103.87"/><g class="cls-3"><g class="cls-54"><g class="cls-3"><path class="cls-28" d="M151,99.86l-19.51-4.79c-4.9-5.36-6.85-13.18-5.89-20.92l19.52,4.79c-1,7.74,1,15.56,5.88,20.92" transform="translate(0 0)"/><path class="cls-35" d="M145.07,78.94l-19.52-4.79a32.75,32.75,0,0,1,1-4.86l19.52,4.78a32.62,32.62,0,0,0-1,4.87" transform="translate(0 0)"/><path class="cls-36" d="M146.07,74.07l-19.52-4.78A32.66,32.66,0,0,1,128,65.24L147.54,70a33.11,33.11,0,0,0-1.47,4" transform="translate(0 0)"/><path class="cls-20" d="M147.54,70,128,65.24a33.21,33.21,0,0,1,2-3.77l19.52,4.79a30.21,30.21,0,0,0-2,3.77" transform="translate(0 0)"/><path class="cls-17" d="M149.54,66.26,130,61.47a30.91,30.91,0,0,1,1.82-2.59c.38-.48.76-.94,1.16-1.38l19.51,4.78c-.39.44-.77.9-1.15,1.39a30.91,30.91,0,0,0-1.82,2.59" transform="translate(0 0)"/><path class="cls-18" d="M152.51,62.28,133,57.5a25.66,25.66,0,0,1,6.25-5.2l19.52,4.79a25.43,25.43,0,0,0-6.26,5.19" transform="translate(0 0)"/><path class="cls-19" d="M158.77,57.09,139.25,52.3a22.2,22.2,0,0,1,4.16-1.86l19.52,4.79a21,21,0,0,0-4.16,1.86" transform="translate(0 0)"/><path class="cls-18" d="M162.93,55.23l-19.52-4.79a19.77,19.77,0,0,1,3.16-.73,18,18,0,0,1,4.08-.14l19.52,4.78a18.61,18.61,0,0,0-4.08.14,19.81,19.81,0,0,0-3.16.74" transform="translate(0 0)"/><path class="cls-17" d="M170.17,54.35l-19.52-4.78a16.21,16.21,0,0,1,2.76.45l19.52,4.78a18.46,18.46,0,0,0-2.76-.45" transform="translate(0 0)"/></g></g></g><path class="cls-2" d="M113.06,177.06l-19.52-4.79c-9.24-2.26-16.11-11.7-16.32-23.89l19.52,4.78C97,165.35,103.81,174.79,113.06,177.06Z" transform="translate(0 0)"/><g class="cls-55"><g class="cls-3"><path class="cls-2" d="M113.06,177.06l-19.52-4.79c-9.24-2.26-16.11-11.7-16.32-23.89l19.52,4.78c.21,12.19,7.07,21.63,16.32,23.9" transform="translate(0 0)"/></g></g><polygon class="cls-2" points="117.51 25.78 97.99 21 228.43 2 247.95 6.78 117.51 25.78"/><polygon class="cls-2" points="96.74 153.16 77.22 148.38 75.53 51.88 95.05 56.67 96.74 153.16"/><path class="cls-2" d="M95,56.67,75.53,51.88C75.26,36.73,85.37,22.84,98,21l19.52,4.78C104.88,27.62,94.78,41.51,95,56.67Z" transform="translate(0 0)"/><g class="cls-56"><g class="cls-3"><path class="cls-2" d="M95,56.67,75.53,51.88a34.27,34.27,0,0,1,.25-4.76L95.3,51.91A35.7,35.7,0,0,0,95,56.67" transform="translate(0 0)"/><path class="cls-2" d="M95.3,51.91,75.78,47.12a35.15,35.15,0,0,1,1.08-5.25l19.52,4.78a34.06,34.06,0,0,0-1.08,5.26" transform="translate(0 0)"/><path class="cls-2" d="M96.38,46.65,76.86,41.87a34.71,34.71,0,0,1,1.61-4.42L98,42.23a35.28,35.28,0,0,0-1.61,4.42" transform="translate(0 0)"/><path class="cls-2" d="M98,42.23,78.47,37.45a32.34,32.34,0,0,1,2.19-4.12l19.51,4.78A35.13,35.13,0,0,0,98,42.23" transform="translate(0 0)"/><path class="cls-2" d="M100.17,38.11,80.66,33.33a30.39,30.39,0,0,1,3.12-4.19l19.52,4.78a31.94,31.94,0,0,0-3.13,4.19" transform="translate(0 0)"/><path class="cls-2" d="M103.3,33.92,83.78,29.14a26.52,26.52,0,0,1,6.62-5.46l19.52,4.78a26.73,26.73,0,0,0-6.62,5.46" transform="translate(0 0)"/><path class="cls-2" d="M109.92,28.46,90.4,23.68a21.5,21.5,0,0,1,4.19-1.88l19.51,4.78a23,23,0,0,0-4.18,1.88" transform="translate(0 0)"/><path class="cls-2" d="M114.1,26.58,94.59,21.8A20.74,20.74,0,0,1,98,21l19.52,4.78a20.86,20.86,0,0,0-3.41.8" transform="translate(0 0)"/></g></g><path class="cls-38" d="M248,6.78c12.62-1.84,23.16,9.05,23.43,24.2l1.69,96.5c.27,15.15-9.84,29.06-22.46,30.9l-37.72,5.49-20.55,32.51a8.78,8.78,0,0,1-6,4.48,6.7,6.7,0,0,1-6.78-2.59l-21.64-26.39-37.71,5.5c-12.63,1.83-23.17-9.06-23.43-24.22L95,56.67c-.26-15.16,9.84-29,22.47-30.89ZM217.26,90.05a31.3,31.3,0,0,0,5.51-18.24c-.12-6.82-2.54-13.3-7.18-17.65a17.6,17.6,0,0,0-14.84-4.72c-5.77.84-11.47,4.4-15.63,10.4L183.6,62,182,60.29a17.7,17.7,0,0,0-15.91-5.8c-5.28.77-10.53,3.81-14.61,9-8.66,11-8.84,27.25-.53,36.36l3.67,4,30.07,27.4,29.08-36.18,3.49-5" transform="translate(0 0)"/><polygon class="cls-10" points="159.81 193.18 160.81 194.35 180.02 199.04 178.87 197.65 171.18 195.21 159.81 193.18"/><path class="cls-39" d="M202.52,47.87A20.62,20.62,0,0,1,219.44,53c5.29,4.76,8.05,11.84,8.18,19.29a33.14,33.14,0,0,1-6.28,20l-4,5.52L184.2,137.35l-34.3-30L145.73,103c-9.49-10-9.28-27.69.46-39.58C151,57.56,157,54.23,163,53.39a20.69,20.69,0,0,1,18.15,6.34L183,61.65l1.74-2.41C189.43,52.68,195.94,48.79,202.52,47.87Z" transform="translate(0 0)"/></g></g></svg>