<svg xmlns="http://www.w3.org/2000/svg" xmlns:xlink="http://www.w3.org/1999/xlink" viewBox="0 0 214.07 246.38"><defs><style>.cls-1{mask:url(#mask);filter:url(#luminosity-noclip-2);}.cls-2{mix-blend-mode:multiply;fill:url(#linear-gradient);}.cls-3{fill:url(#linear-gradient-2);}.cls-4{fill:url(#linear-gradient-3);}.cls-5{fill:url(#linear-gradient-4);}.cls-6{fill:url(#linear-gradient-5);}.cls-7{fill:url(#linear-gradient-6);}.cls-8{fill:url(#linear-gradient-7);}.cls-9{fill:url(#linear-gradient-8);}.cls-10{fill:url(#linear-gradient-9);}.cls-11{fill:url(#linear-gradient-10);}.cls-12{fill:url(#linear-gradient-11);}.cls-13{fill:url(#linear-gradient-12);}.cls-14{mask:url(#mask-2);}.cls-15{opacity:0.33;fill:url(#linear-gradient-13);}.cls-16{fill:url(#linear-gradient-14);}.cls-17{fill:url(#linear-gradient-15);}.cls-18{fill:url(#linear-gradient-16);}.cls-19{fill:url(#linear-gradient-17);}.cls-20{fill:url(#linear-gradient-18);}.cls-21{fill:url(#linear-gradient-19);}.cls-22{fill:url(#linear-gradient-20);}.cls-23{filter:url(#luminosity-noclip);}</style><filter id="luminosity-noclip" x="74.71" y="-8265.38" width="82.62" height="32766" filterUnits="userSpaceOnUse" color-interpolation-filters="sRGB"><feFlood flood-color="#fff" result="bg"/><feBlend in="SourceGraphic" in2="bg"/></filter><mask id="mask" x="74.71" y="-8265.38" width="82.62" height="32766" maskUnits="userSpaceOnUse"><g class="cls-23"/></mask><linearGradient id="linear-gradient" x1="-636.29" y1="66.26" x2="-619.08" y2="189.72" gradientTransform="matrix(-1, 0, 0, 1, -505.02, 0)" gradientUnits="userSpaceOnUse"><stop offset="0" stop-color="#fff"/><stop offset="1"/></linearGradient><linearGradient id="linear-gradient-2" x1="-68.13" y1="109.09" x2="125.61" y2="160.01" gradientUnits="userSpaceOnUse"><stop offset="0" stop-color="#7f69d1"/><stop offset="1" stop-color="#3e18c9"/></linearGradient><linearGradient id="linear-gradient-3" x1="-65.74" y1="99.97" x2="128.01" y2="150.9" gradientUnits="userSpaceOnUse"><stop offset="0" stop-color="#7f69d1"/><stop offset="1" stop-color="#230a60"/></linearGradient><linearGradient id="linear-gradient-4" x1="-50.45" y1="181.42" x2="88.03" y2="232.34" gradientTransform="translate(121.4 444.59) rotate(-180)" xlink:href="#linear-gradient-3"/><linearGradient id="linear-gradient-5" x1="-51.08" y1="186.94" x2="92.36" y2="258.36" gradientTransform="translate(123.65 486.3) rotate(-180)" xlink:href="#linear-gradient-3"/><linearGradient id="linear-gradient-6" x1="40.88" y1="178.52" x2="52.68" y2="208.32" xlink:href="#linear-gradient-3"/><linearGradient id="linear-gradient-7" x1="-54.17" y1="181.27" x2="107.29" y2="261.38" xlink:href="#linear-gradient-2"/><linearGradient id="linear-gradient-8" x1="-17.82" y1="-2.38" x2="91.47" y2="70.89" xlink:href="#linear-gradient-3"/><linearGradient id="linear-gradient-9" x1="14.68" y1="-21.43" x2="48.21" y2="51.23" xlink:href="#linear-gradient-2"/><linearGradient id="linear-gradient-10" x1="55.82" y1="-40.42" x2="89.36" y2="32.24" xlink:href="#linear-gradient-2"/><linearGradient id="linear-gradient-11" x1="-659.65" y1="27.25" x2="-658.67" y2="233.61" gradientTransform="matrix(-1, 0, 0, 1, -505.02, 0)" gradientUnits="userSpaceOnUse"><stop offset="0" stop-color="#fff"/><stop offset="1" stop-color="#b7b7b7"/></linearGradient><linearGradient id="linear-gradient-12" x1="-561.8" y1="20.05" x2="-653.88" y2="180.7" xlink:href="#linear-gradient-11"/><filter id="luminosity-noclip-2" x="74.71" y="68.57" width="82.62" height="147.5" filterUnits="userSpaceOnUse" color-interpolation-filters="sRGB"><feFlood flood-color="#fff" result="bg"/><feBlend in="SourceGraphic" in2="bg"/></filter><mask id="mask-2" x="74.71" y="68.57" width="82.62" height="147.5" maskUnits="userSpaceOnUse"><g class="cls-1"><path class="cls-2" d="M74.71,216.07l69.83-21.7c26.69-78.81,3.32-125.8,3.32-125.8L126.75,90.09l2.68-.35C141,143.79,74.71,216.07,74.71,216.07Z"/></g></mask><linearGradient id="linear-gradient-13" x1="-636.29" y1="66.26" x2="-619.08" y2="189.72" gradientTransform="matrix(-1, 0, 0, 1, -505.02, 0)" gradientUnits="userSpaceOnUse"><stop offset="0"/><stop offset="1" stop-color="#15233a"/></linearGradient><linearGradient id="linear-gradient-14" x1="-658.25" y1="49.43" x2="-559.64" y2="130.08" xlink:href="#linear-gradient-11"/><linearGradient id="linear-gradient-15" x1="-640.43" y1="241.67" x2="-640.43" y2="192.03" gradientTransform="matrix(1, 0, 0, -1, 775.83, 444.74)" xlink:href="#linear-gradient-11"/><linearGradient id="linear-gradient-16" x1="-702.25" y1="243.23" x2="-580.85" y2="243.23" gradientTransform="matrix(1, 0, 0, -1, 778.08, 486.46)" xlink:href="#linear-gradient-11"/><linearGradient id="linear-gradient-17" x1="-640.43" y1="218.49" x2="-640.43" y2="235.19" xlink:href="#linear-gradient-11"/><linearGradient id="linear-gradient-18" x1="-641.55" y1="227.3" x2="-641.55" y2="248.19" xlink:href="#linear-gradient-11"/><linearGradient id="linear-gradient-19" x1="-619.07" y1="26.85" x2="-598.38" y2="26.85" xlink:href="#linear-gradient-11"/><linearGradient id="linear-gradient-20" x1="-562.16" y1="76.93" x2="-638.89" y2="18.81" xlink:href="#linear-gradient-11"/></defs><title>Recurso 7</title><g id="Capa_2" data-name="Capa 2"><g id="Capa_1-2" data-name="Capa 1"><path class="cls-3" d="M0,217.86s37.23-76,30.35-165.77H60.7v170.2Z"/><path class="cls-4" d="M121.4,217.86s-37.22-76-30.35-165.77H60.7v170.2Z"/><rect class="cls-5" y="216" width="121.4" height="12.6" transform="translate(121.4 444.59) rotate(180)"/><rect class="cls-6" x="1.12" y="240" width="121.4" height="6.3" transform="translate(123.65 486.3) rotate(180)"/><polygon class="cls-7" points="121.4 228.59 115.7 234.3 6.73 234.3 0 228.59 121.4 228.59"/><polygon class="cls-8" points="1.12 240 6.83 234.3 115.79 234.3 122.53 240 1.12 240"/><rect class="cls-9" x="27.11" y="48.44" width="67.19" height="3.66"/><polygon class="cls-10" points="60.7 48.44 60.7 0 50.84 0 50.84 14.59 30.35 14.59 30.35 0 10.79 0 10.79 48.44 60.7 48.44"/><polygon class="cls-11" points="60.7 48.44 60.7 0 70.56 0 70.56 14.59 91.05 14.59 91.05 0 110.61 0 110.61 48.44 60.7 48.44"/><path class="cls-12" d="M114.06,28.51,94.72,20.88s27.43-13.49,59.41,3.82,89.13,75.88,42,191.37L132.82,62.29Z"/><path class="cls-13" d="M41,99.1l4.37,13.12,1.45,4.35A13,13,0,0,0,49.63,120l15.5-8.65,5.75-3.2L93.21,95.74l2.92-1.63,5.56-.73,25.06-3.29,2.68-.35C141,143.79,74.71,216.07,74.71,216.07H196.17C243.31,62.68,114.06,28.51,114.06,28.51Z"/><g class="cls-14"><path class="cls-15" d="M74.71,216.07l69.83-21.7c26.69-78.81,3.32-125.8,3.32-125.8L126.75,90.09l2.68-.35C141,143.79,74.71,216.07,74.71,216.07Z"/></g><path class="cls-16" d="M43.17,105.5S75,76.71,92.72,60.78A31,31,0,0,1,104.18,50.5l0,0h0a30.86,30.86,0,1,1,.9,55.28l-34,5.2h0a12.9,12.9,0,0,1-24.2,5.6,12.62,12.62,0,0,1-1.45-4.35v0Z"/><rect class="cls-17" x="74.71" y="216.07" width="121.4" height="12.6" transform="translate(270.82 444.74) rotate(180)"/><rect class="cls-18" x="75.83" y="240.08" width="121.4" height="6.3" transform="translate(273.06 486.46) rotate(180)"/><polygon class="cls-19" points="196.11 228.67 190.4 234.37 81.44 234.37 74.71 228.67 196.11 228.67"/><polygon class="cls-20" points="75.83 240.08 81.53 234.37 190.5 234.37 197.23 240.08 75.83 240.08"/><polygon class="cls-21" points="94.72 20.88 93.36 25.51 102.2 32.82 114.06 28.51 94.72 20.88"/><polygon class="cls-22" points="102.2 32.82 43.17 91.93 41.04 99.1 114.06 28.51 102.2 32.82"/></g></g></svg>